<svg width="512" height="512" xmlns="http://www.w3.org/2000/svg">

 <g>
  <title>background</title>
  <rect fill="none" id="canvas_background" height="402" width="582" y="-1" x="-1"/>
 </g>
 <g>
  <title>Layer 1</title>
  <g id="svg_1">
   <path fill="#999999" id="svg_2" d="m446,40l-46,0l0,-24c0,-8.836 -7.163,-16 -16,-16s-16,7.164 -16,16l0,24l-224,0l0,-24c0,-8.836 -7.163,-16 -16,-16s-16,7.164 -16,16l0,24l-46,0c-36.393,0 -66,29.607 -66,66l0,340c0,36.393 29.607,66 66,66l380,0c36.393,0 66,-29.607 66,-66l0,-340c0,-36.393 -29.607,-66 -66,-66zm-380,32l46,0l0,16c0,8.836 7.163,16 16,16s16,-7.164 16,-16l0,-16l224,0l0,16c0,8.836 7.163,16 16,16s16,-7.164 16,-16l0,-16l46,0c18.748,0 34,15.252 34,34l0,38l-448,0l0,-38c0,-18.748 15.252,-34 34,-34zm380,408l-380,0c-18.748,0 -34,-15.252 -34,-34l0,-270l448,0l0,270c0,18.748 -15.252,34 -34,34z"/>
  </g>
 </g>
</svg>